<svg width="242" height="101" viewBox="0 0 242 101" fill="none" xmlns="http://www.w3.org/2000/svg">
<g clip-path="url(#clip0_1484_34624)">
<path d="M104.763 15.3991C87.8439 15.3991 74.0576 28.9866 74.0576 45.7444C74.0576 62.5023 87.9008 76.3728 104.877 76.3728C115.302 76.3728 124.702 71.6738 130.741 63.4081C131.253 62.7287 131.367 61.7097 130.399 60.9171L124.759 56.6144C124.303 56.2747 123.848 56.2181 123.392 56.2747C122.936 56.3879 122.537 56.671 122.309 57.0673C118.55 62.7853 112.226 66.069 105.048 66.069C95.8764 66.069 88.0717 59.898 85.793 50.8963H131.88C134.216 50.8963 135.754 48.8016 135.754 45.5746C135.754 37.5353 132.507 29.949 126.639 24.1743C120.771 18.4563 113.024 15.2859 104.877 15.2859L104.763 15.3991ZM104.763 25.6463C113.821 25.6463 121.854 31.9305 124.076 40.7057H85.6791C87.7869 31.8173 95.5345 25.6463 104.706 25.6463H104.763Z" fill="white"/>
<path d="M179.449 17.0975C176.999 16.1917 174.322 15.7954 170.79 15.7954C165.719 15.7954 160.421 18.1732 156.775 21.9664V18.3997C156.775 17.3806 156.035 16.588 154.952 16.588H148.059C147.034 16.588 146.236 17.324 146.236 18.3997C146.236 19.7584 146.236 21.1738 146.293 22.759C146.293 24.8537 146.407 27.2315 146.407 30.2887V62.2758C146.407 65.4462 146.407 67.5975 146.35 69.5224C146.35 70.9378 146.35 72.1833 146.35 73.4854C146.35 74.6177 147.205 75.1839 148.059 75.1839H155.75C156.832 75.1839 157.573 74.5045 157.573 73.4854C157.573 72.1833 157.573 70.8812 157.573 69.3526C157.573 67.3711 157.516 65.1065 157.516 62.2758V40.819C157.516 32.3268 163.498 25.9294 171.416 25.9294C173.581 25.9294 175.233 26.2125 176.771 26.8352C177.227 27.0051 177.683 27.0051 178.138 26.722C178.537 26.4955 178.879 26.0426 178.936 25.5331L180.588 19.1923C180.816 18.2864 180.417 17.5505 179.449 17.1542V17.0975Z" fill="white"/>
<path d="M211.293 15.3991C194.317 15.3991 180.474 28.9866 180.474 45.7444C180.474 62.5022 194.317 76.3728 211.293 76.3728C228.27 76.3728 241.999 62.6155 241.999 45.7444C241.999 28.8733 228.213 15.3991 211.293 15.3991ZM211.293 25.6463C222.174 25.6463 231.004 34.648 231.004 45.7444C231.004 56.8408 222.174 66.1256 211.293 66.1256C200.412 66.1256 191.468 57.0107 191.468 45.8576V45.7444C191.468 34.648 200.355 25.6463 211.293 25.6463Z" fill="white"/>
<path d="M42.6683 16.9277L0.341116 72.5796C-0.0576595 73.0891 -0.114627 73.7119 0.170212 74.278C0.455052 74.7876 0.967764 75.0706 1.53744 75.0706H52.0681C55.3152 75.0706 57.9927 75.0706 60.3284 75.1273C62.2083 75.1273 64.0313 75.1273 65.7973 75.1273C66.9367 75.1273 67.6203 74.278 67.6203 73.4288V65.7859C67.6203 64.7668 66.8797 63.9742 65.7973 63.9742C64.0883 63.9742 62.4362 63.9742 60.4423 63.9742C58.0497 63.9742 55.3722 64.0308 52.0681 64.0308H21.0205L56.8534 16.9277H42.6683Z" fill="white"/>
<path d="M67.734 2.60426C68.1328 2.09473 68.2467 1.52859 68.0188 0.962444C67.791 0.3963 67.2213 0.0566143 66.5946 0.0566143H24.6662C21.0772 0.113229 18.2858 0.0566143 15.8362 0C13.8423 0 12.1333 0 10.3672 0C9.45576 0 8.6582 0.735987 8.6582 1.69843V9.4546C8.6582 10.3604 9.39879 11.153 10.3672 11.153C12.3042 11.153 14.1271 11.153 16.121 11.153C18.5706 11.153 21.3051 11.0964 24.7801 11.0964L46.8268 11.2663H61.1827L67.677 2.66087L67.734 2.60426Z" fill="white"/>
<path d="M98.3262 97.2635V85.3745H103.282C104.137 85.3745 104.821 85.4877 105.39 85.7707C105.96 86.0538 106.416 86.3935 106.7 86.8464C106.985 87.2993 107.156 87.8655 107.156 88.4316C107.156 88.9978 107.042 89.5073 106.757 89.9036C106.53 90.2999 106.131 90.6396 105.732 90.866C105.333 91.0925 104.821 91.2057 104.308 91.2623L104.593 91.0925C105.162 91.0925 105.618 91.2623 106.074 91.5454C106.53 91.8285 106.814 92.1682 107.099 92.6211C107.384 93.074 107.441 93.5269 107.441 94.0364C107.441 94.6592 107.27 95.2253 106.985 95.7349C106.7 96.2444 106.245 96.5841 105.618 96.8672C104.991 97.1502 104.308 97.2635 103.453 97.2635H98.3262ZM100.719 90.2999H102.884C103.453 90.2999 103.909 90.1867 104.194 89.9036C104.479 89.6205 104.65 89.2808 104.65 88.7713C104.65 88.2618 104.479 87.9221 104.194 87.639C103.909 87.356 103.453 87.2427 102.827 87.2427H100.662V90.2999H100.719ZM100.719 95.3386H103.111C103.738 95.3386 104.194 95.2254 104.536 94.9423C104.877 94.6592 105.048 94.2629 105.048 93.7534C105.048 93.2438 104.877 92.8475 104.536 92.5645C104.194 92.2814 103.738 92.1116 103.111 92.1116H100.776V95.3386H100.719Z" fill="white"/>
<path d="M112.455 97.4333C111.771 97.4333 111.144 97.2634 110.689 96.9804C110.176 96.6973 109.834 96.2444 109.549 95.6782C109.264 95.1121 109.15 94.4327 109.15 93.5835V88.6014H111.543V93.3004C111.543 93.9798 111.714 94.4893 111.942 94.829C112.227 95.1687 112.625 95.3386 113.252 95.3386C113.651 95.3386 113.936 95.2819 114.278 95.1121C114.562 94.9422 114.79 94.7158 114.961 94.3761C115.132 94.0364 115.189 93.6401 115.189 93.1872V88.6014H117.582V97.1502H115.474L115.303 95.7915C115.075 96.2444 114.676 96.6407 114.221 96.9238C113.765 97.2068 113.138 97.3767 112.455 97.3767V97.4333Z" fill="white"/>
<path d="M121.113 87.5824C120.657 87.5824 120.315 87.4692 120.031 87.1861C119.746 86.9597 119.632 86.62 119.632 86.2237C119.632 85.8274 119.746 85.5443 120.031 85.2612C120.315 85.0348 120.657 84.8649 121.113 84.8649C121.569 84.8649 121.911 84.9782 122.195 85.2612C122.48 85.4877 122.594 85.8274 122.594 86.2237C122.594 86.62 122.48 86.903 122.195 87.1861C121.911 87.4126 121.569 87.5824 121.113 87.5824ZM119.917 97.2635V88.7147H122.309V97.2635H119.917Z" fill="white"/>
<path d="M124.589 97.2635V85.0348H126.982V97.2635H124.589Z" fill="white"/>
<path d="M133.02 97.4333C132.222 97.4333 131.539 97.2635 130.912 96.8672C130.286 96.4709 129.83 95.9614 129.431 95.282C129.089 94.6026 128.861 93.8666 128.861 92.9608C128.861 92.055 129.032 91.319 129.431 90.6396C129.773 89.9602 130.286 89.4507 130.912 89.0544C131.539 88.6581 132.279 88.4883 133.02 88.4883C133.647 88.4883 134.159 88.6015 134.615 88.8279C135.071 89.0544 135.413 89.3375 135.754 89.7904V85.0348H138.147V97.2635H136.039L135.754 96.1312C135.754 96.1312 135.356 96.5841 135.128 96.8106C134.9 97.037 134.558 97.2069 134.216 97.3201C133.875 97.4333 133.476 97.4899 132.963 97.4899L133.02 97.4333ZM133.59 95.3952C134.045 95.3952 134.444 95.282 134.786 95.1121C135.128 94.8857 135.413 94.6026 135.584 94.2629C135.754 93.9232 135.868 93.4703 135.868 93.0174C135.868 92.5645 135.754 92.1116 135.584 91.7719C135.413 91.4322 135.128 91.1491 134.786 90.9227C134.444 90.6962 134.045 90.6396 133.59 90.6396C133.134 90.6396 132.792 90.7528 132.45 90.9227C132.108 91.1491 131.824 91.4322 131.653 91.7719C131.482 92.1116 131.368 92.5645 131.368 93.0174C131.368 93.4703 131.482 93.9232 131.653 94.2629C131.824 94.6026 132.108 94.9423 132.45 95.1121C132.792 95.3386 133.191 95.3952 133.59 95.3952Z" fill="white"/>
<path d="M145.496 101L147.546 96.301H147.034L143.559 88.7147H146.179L148.629 94.1497L150.794 88.7147H153.357L148.059 101H145.552H145.496Z" fill="white"/>
<path d="M158.199 97.4333C157.401 97.4333 156.661 97.2634 155.977 96.8671C155.294 96.4708 154.781 95.9613 154.382 95.2819C153.983 94.6026 153.812 93.81 153.812 92.9608C153.812 92.1115 153.983 91.3189 154.382 90.6396C154.781 89.9602 155.294 89.4507 155.977 89.0544C156.661 88.6581 157.401 88.4882 158.199 88.4882C158.997 88.4882 159.794 88.6581 160.421 89.0544C161.104 89.4507 161.617 89.9602 162.016 90.6396C162.415 91.3189 162.586 92.1115 162.586 92.9608C162.586 93.81 162.415 94.6026 162.016 95.2819C161.617 95.9613 161.104 96.4708 160.478 96.8671C159.794 97.2634 159.054 97.4333 158.256 97.4333H158.199ZM158.199 95.3952C158.598 95.3952 158.883 95.2819 159.167 95.1121C159.452 94.9423 159.68 94.6592 159.851 94.3195C160.022 93.9798 160.136 93.5269 160.136 92.9608C160.136 92.3946 160.079 91.9983 159.908 91.602C159.737 91.2623 159.509 90.9793 159.224 90.8094C158.94 90.6396 158.598 90.5263 158.256 90.5263C157.914 90.5263 157.572 90.6396 157.288 90.8094C157.003 90.9793 156.775 91.2623 156.604 91.602C156.433 91.9417 156.376 92.3946 156.376 92.9608C156.376 93.5269 156.433 93.9232 156.604 94.3195C156.775 94.6592 157.003 94.9423 157.288 95.1121C157.572 95.2819 157.914 95.3952 158.256 95.3952H158.199Z" fill="white"/>
<path d="M167.77 97.4333C167.086 97.4333 166.46 97.2634 166.004 96.9804C165.491 96.6973 165.149 96.2444 164.865 95.6782C164.58 95.1121 164.466 94.4327 164.466 93.5835V88.6014H166.858V93.3004C166.858 93.9798 167.029 94.4893 167.257 94.829C167.542 95.1687 167.941 95.3386 168.568 95.3386C168.966 95.3386 169.251 95.2819 169.593 95.1121C169.878 94.9422 170.106 94.7158 170.277 94.3761C170.447 94.0364 170.504 93.6401 170.504 93.1872V88.6014H172.897V97.1502H170.789L170.618 95.7915C170.39 96.2444 169.992 96.6407 169.536 96.9238C169.08 97.2068 168.454 97.3767 167.77 97.3767V97.4333Z" fill="white"/>
<path d="M175.176 97.2634V88.7147H177.284L177.511 90.2999C177.739 89.9036 177.967 89.6205 178.309 89.3374C178.594 89.0544 178.993 88.8845 179.391 88.7147C179.79 88.5448 180.246 88.4882 180.702 88.4882V90.9792H179.904C179.562 90.9792 179.221 90.9793 178.936 91.0925C178.651 91.1491 178.423 91.3189 178.195 91.4888C177.967 91.6586 177.853 91.8851 177.739 92.2248C177.625 92.5645 177.568 92.9041 177.568 93.3571V97.2634H175.176Z" fill="white"/>
<path d="M185.373 90.6962V88.7147H190.785V90.6962H185.373ZM186.569 97.2635V87.9787C186.569 87.2427 186.683 86.6766 186.968 86.2237C187.196 85.7707 187.595 85.4877 187.994 85.2612C188.449 85.0914 188.962 84.9781 189.589 84.9781H190.671V87.0163H189.987C189.646 87.0163 189.361 87.0729 189.19 87.2427C189.019 87.4126 188.962 87.639 188.962 87.9787V97.2635H186.569Z" fill="white"/>
<path d="M195.798 97.4333C195.115 97.4333 194.488 97.2634 194.032 96.9804C193.52 96.6973 193.178 96.2444 192.893 95.6782C192.608 95.1121 192.494 94.4327 192.494 93.5835V88.6014H194.887V93.3004C194.887 93.9798 195.058 94.4893 195.286 94.829C195.57 95.1687 195.969 95.3386 196.596 95.3386C196.995 95.3386 197.279 95.2819 197.621 95.1121C197.906 94.9422 198.134 94.7158 198.305 94.3761C198.476 94.0364 198.533 93.6401 198.533 93.1872V88.6014H200.925V97.1502H198.818L198.647 95.7915C198.419 96.2444 198.02 96.6407 197.564 96.9238C197.109 97.2068 196.482 97.3767 195.798 97.3767V97.4333Z" fill="white"/>
<path d="M207.135 97.2635C206.508 97.2635 205.995 97.1503 205.539 96.9804C205.084 96.8106 204.742 96.4709 204.457 96.018C204.172 95.565 204.058 94.9989 204.058 94.2063V90.6962H202.577V88.7147H204.058L204.286 86.3369H206.394V88.7147H208.673V90.6962H206.451V94.2629C206.451 94.6592 206.508 94.8857 206.679 95.0555C206.85 95.2254 207.135 95.282 207.533 95.282H208.673V97.3201H207.078L207.135 97.2635Z" fill="white"/>
<path d="M213.857 97.4333C213.173 97.4333 212.547 97.2634 212.091 96.9804C211.578 96.6973 211.236 96.2444 210.952 95.6782C210.667 95.1121 210.553 94.4327 210.553 93.5835V88.6014H212.945V93.3004C212.945 93.9798 213.116 94.4893 213.344 94.829C213.629 95.1687 214.028 95.3386 214.654 95.3386C215.053 95.3386 215.338 95.2819 215.68 95.1121C215.965 94.9422 216.193 94.7158 216.363 94.3761C216.534 94.0364 216.591 93.6401 216.591 93.1872V88.6014H218.984V97.1502H216.876L216.705 95.7915C216.477 96.2444 216.079 96.6407 215.623 96.9238C215.167 97.2068 214.541 97.3767 213.857 97.3767V97.4333Z" fill="white"/>
<path d="M221.263 97.2634V88.7147H223.371L223.598 90.2999C223.826 89.9036 224.054 89.6205 224.396 89.3374C224.681 89.0544 225.08 88.8845 225.478 88.7147C225.877 88.5448 226.333 88.4882 226.789 88.4882V90.9792H225.991C225.649 90.9792 225.307 90.9793 225.023 91.0925C224.738 91.1491 224.51 91.3189 224.282 91.4888C224.054 91.6586 223.94 91.8851 223.826 92.2248C223.712 92.5645 223.655 92.9041 223.655 93.3571V97.2634H221.263Z" fill="white"/>
<path d="M232.372 97.4333C231.517 97.4333 230.72 97.2635 230.093 96.8672C229.41 96.4709 228.897 95.9614 228.555 95.3386C228.156 94.6592 227.985 93.9232 227.985 93.0174C227.985 92.1116 228.156 91.3756 228.555 90.6396C228.954 89.9602 229.467 89.3941 230.093 88.9978C230.777 88.6015 231.517 88.4316 232.429 88.4316C233.34 88.4316 234.024 88.6015 234.651 88.9978C235.277 89.3941 235.79 89.9036 236.132 90.5264C236.474 91.1491 236.644 91.8851 236.644 92.7343C236.644 92.8476 236.644 92.9608 236.644 93.1306C236.644 93.2439 236.644 93.4137 236.644 93.5836H229.694V92.1682H234.309C234.309 91.6587 234.081 91.2057 233.739 90.9227C233.397 90.6396 232.942 90.4698 232.429 90.4698C232.03 90.4698 231.688 90.583 231.346 90.7528C231.005 90.9227 230.777 91.2057 230.606 91.5454C230.435 91.8851 230.321 92.338 230.321 92.9042V93.4137C230.321 93.8666 230.435 94.2629 230.549 94.6026C230.72 94.9423 230.948 95.1688 231.289 95.3952C231.574 95.5651 231.973 95.6783 232.372 95.6783C232.771 95.6783 233.112 95.5651 233.397 95.4518C233.682 95.282 233.853 95.0555 234.024 94.7724H236.474C236.303 95.282 236.018 95.7915 235.676 96.1878C235.277 96.6407 234.822 96.9804 234.309 97.2069C233.796 97.4333 233.169 97.6032 232.486 97.6032L232.372 97.4333Z" fill="white"/>
</g>
<defs>
<clipPath id="clip0_1484_34624">
<rect width="242" height="101" fill="white"/>
</clipPath>
</defs>
</svg>
